<?xml version="1.0" encoding="utf-8"?>
<!-- Generator: Adobe Illustrator 25.2.3, SVG Export Plug-In . SVG Version: 6.00 Build 0)  -->
<svg version="1.1" id="Bold" xmlns="http://www.w3.org/2000/svg" xmlns:xlink="http://www.w3.org/1999/xlink" x="0px" y="0px"
	 viewBox="0 0 512 512" style="enable-background:new 0 0 512 512;" xml:space="preserve">
<style type="text/css">
	.st0{fill:#39b4a0ff;}
	.st1{fill:#203555;}
</style>
<path class="st0" d="M421.2,45.6c0,8.2-3.3,16-9,21.8L254.4,225.2c-20.1,20.1-20.1,52.6,0,72.7c0,0,0,0,0,0L412,455.5
	c11.8,12.3,11.5,31.8-0.8,43.6c-12,11.5-30.9,11.5-42.9,0L210.8,341.7c-44.1-44.2-44.1-115.8,0-160L368.5,23.8
	c12-12.1,31.6-12.1,43.6,0C418,29.6,421.2,37.4,421.2,45.6z"/>
<path class="st0" d="M1058.8,511.5l-189-189c-32.2-32.2-32.2-84.3,0-116.5l189-189c25.9-25.9,70.3-7.6,70.3,29.1v436.1
	C1129.1,519.1,1084.7,537.5,1058.8,511.5z"/>
<path class="st1" d="M373.2,31c0,8.2-3.3,16-9,21.8L206.4,210.5c-20.1,20.1-20.1,52.6,0,72.7c0,0,0,0,0,0L364,440.8
	c11.8,12.3,11.5,31.8-0.8,43.6c-12,11.5-30.9,11.5-42.9,0L162.8,327c-44.1-44.2-44.1-115.8,0-160L320.6,9.1
	c12-12.1,31.6-12.1,43.6,0C370,14.9,373.2,22.8,373.2,31z"/>
</svg>
