<?xml version="1.0" encoding="utf-8"?>
<!-- Generator: Adobe Illustrator 25.2.3, SVG Export Plug-In . SVG Version: 6.00 Build 0)  -->
<svg version="1.1" id="Outline" xmlns="http://www.w3.org/2000/svg" xmlns:xlink="http://www.w3.org/1999/xlink" x="0px" y="0px"
	 viewBox="0 0 512 512" style="enable-background:new 0 0 512 512;" xml:space="preserve">
<style type="text/css">
	.st0{fill:#39b4a0ff;}
	.st1{fill:#203555;}
</style>
<path class="st0" d="M50.2,106.6h54.9c10.8,39.9,52,63.4,91.9,52.6c25.6-7,45.6-27,52.6-52.6h242.3c11.1,0,20.1-9,20.1-20.1
	s-9-20.1-20.1-20.1H249.6c-10.8-39.9-52-63.4-91.9-52.6c-25.6,7-45.6,27-52.6,52.6H50.2c-11.1,0-20.1,9-20.1,20.1
	S39.1,106.6,50.2,106.6z"/>
<path class="st1" d="M20.1,95.4H75c10.8,39.9,52,63.4,91.9,52.6c25.6-7,45.6-27,52.6-52.6h242.3c11.1,0,20.1-9,20.1-20.1
	s-9-20.1-20.1-20.1H219.5c-10.8-39.9-52-63.4-91.9-52.6C102,9.6,82,29.6,75,55.2H20.1C9,55.2,0,64.2,0,75.3S9,95.4,20.1,95.4z
	 M147.2,40.2c19.4,0,35.1,15.7,35.1,35.1s-15.7,35.1-35.1,35.1s-35.1-15.7-35.1-35.1C112.1,55.9,127.8,40.2,147.2,40.2z"/>
<path class="st0" d="M512,248.9c0-11.1-9-20.1-20.1-20.1H437c-7-25.6-27-45.6-52.6-52.6c-39.9-10.8-81,12.7-91.9,52.6H50.2
	c-11.1,0-20.1,9-20.1,20.1s9,20.1,20.1,20.1h242.3c7,25.6,27,45.6,52.6,52.6c39.9,10.8,81-12.7,91.9-52.6h54.9
	C503,269,512,260,512,248.9z"/>
<path class="st0" d="M50.2,439.8h54.9c10.8,39.9,52,63.4,91.9,52.6c25.6-7,45.6-27,52.6-52.6h242.3c11.1,0,20.1-9,20.1-20.1
	c0-11.1-9-20.1-20.1-20.1H249.6c-10.8-39.9-52-63.4-91.9-52.6c-25.6,7-45.6,27-52.6,52.6H50.2c-11.1,0-20.1,9-20.1,20.1
	C30.1,430.8,39.1,439.8,50.2,439.8z"/>
<path class="st1" d="M461.8,220.9h-54.9c-10.8-39.9-51.9-63.5-91.8-52.6c-25.6,7-45.7,27-52.6,52.6H20.1C9,220.9,0,229.9,0,240.9
	S9,261,20.1,261h242.3c10.8,39.9,51.9,63.5,91.8,52.6c25.6-7,45.7-27,52.6-52.6h54.9c11.1,0,20.1-9,20.1-20.1
	S472.9,220.9,461.8,220.9z M334.6,276.1c-19.4,0-35.1-15.7-35.1-35.1s15.7-35.1,35.1-35.1s35.1,15.7,35.1,35.1
	C369.8,260.3,354,276.1,334.6,276.1z"/>
<path class="st1" d="M461.8,386.5H219.5c-10.8-39.9-52-63.4-91.9-52.6c-25.6,7-45.6,27-52.6,52.6H20.1C9,386.5,0,395.5,0,406.6
	c0,11.1,9,20.1,20.1,20.1H75c10.8,39.9,52,63.4,91.9,52.6c25.6-7,45.6-27,52.6-52.6h242.3c11.1,0,20.1-9,20.1-20.1
	C481.9,395.5,472.9,386.5,461.8,386.5z M147.2,441.7c-19.4,0-35.1-15.7-35.1-35.1c0-19.4,15.7-35.1,35.1-35.1s35.1,15.7,35.1,35.1
	C182.3,426,166.6,441.7,147.2,441.7z"/>
</svg>
