<?xml version="1.0" encoding="utf-8"?>
<!-- Generator: Adobe Illustrator 25.2.3, SVG Export Plug-In . SVG Version: 6.00 Build 0)  -->
<svg version="1.1" id="Layer_1" xmlns="http://www.w3.org/2000/svg" xmlns:xlink="http://www.w3.org/1999/xlink" x="0px" y="0px"
	 viewBox="0 0 512 512" style="enable-background:new 0 0 512 512;" xml:space="preserve">
<style type="text/css">
	.st0{fill:#39b4a0ff;}
	.st1{fill:#203555;}
</style>
<path class="st0" d="M494.5,166.3l-48.1-48.1l39.9-39.9l-28.2-28.2L418.2,90l-48.1-48.1c-23.4-23.4-61.2-23.4-84.6,0c0,0,0,0,0,0
	l-56.4,56.4l90.4,90.4L197.9,310.2l-90.4-90.4l-56.4,56.4c-23.3,23.4-23.3,61.2,0,84.6l48.1,48.1l-39.9,39.9L87.6,477l39.9-39.9
	l48.1,48.1c23.4,23.4,61.2,23.4,84.6,0c0,0,0,0,0,0l56.4-56.4l-90.4-90.4l121.6-121.6l90.4,90.4l56.4-56.4
	C517.8,227.5,517.8,189.6,494.5,166.3L494.5,166.3z"/>
<path class="st1" d="M460.9,150.1l-48.1-48.1l39.9-39.9l-28.2-28.2l-39.9,39.9l-48.1-48.1c-23.4-23.4-61.2-23.4-84.6,0c0,0,0,0,0,0
	L195.5,82l90.4,90.4L164.3,294l-90.4-90.4L17.5,260c-23.3,23.4-23.3,61.2,0,84.6l48.1,48.1l-39.9,39.9L54,460.8l39.9-39.9L142,469
	c23.4,23.4,61.2,23.4,84.6,0c0,0,0,0,0,0l56.4-56.4l-90.4-90.4l121.6-121.6l90.4,90.4l56.4-56.4
	C484.2,211.3,484.2,173.4,460.9,150.1L460.9,150.1z M198.3,440.8c-7.8,7.8-20.4,7.8-28.2,0c0,0,0,0,0,0L45.7,316.4
	c-7.8-7.8-7.8-20.4,0-28.2L73.9,260l152.6,152.6L198.3,440.8z M432.7,206.4l-28.2,28.2L251.9,82l28.2-28.2c7.8-7.8,20.4-7.8,28.2,0
	c0,0,0,0,0,0l124.4,124.5C440.5,186,440.5,198.7,432.7,206.4z"/>
</svg>
