<svg xml:space="preserve" width="400" height="400" xmlns="http://www.w3.org/2000/svg"><defs><linearGradient x1="0" y1="0" x2="1" y2="0" gradientUnits="userSpaceOnUse" gradientTransform="scale(157.2705 -157.2705) rotate(43.947 3.7 .136)" spreadMethod="pad" id="a"><stop style="stop-opacity:1;stop-color:#07c3a6" offset="0"/><stop style="stop-opacity:1;stop-color:#0067fc" offset="1"/></linearGradient><linearGradient x1="0" y1="0" x2="1" y2="0" gradientUnits="userSpaceOnUse" gradientTransform="matrix(40.43122 0 0 -40.43122 110.763 335.754)" spreadMethod="pad" id="d"><stop style="stop-opacity:1;stop-color:#07c3a6" offset="0"/><stop style="stop-opacity:1;stop-color:#0067fc" offset="1"/></linearGradient><linearGradient x1="0" y1="0" x2="1" y2="0" gradientUnits="userSpaceOnUse" gradientTransform="matrix(108.67423 0 0 -108.67423 110.763 347.271)" spreadMethod="pad" id="e"><stop style="stop-opacity:1;stop-color:#ea4136" offset="0"/><stop style="stop-opacity:1;stop-color:#ff8c53" offset="1"/></linearGradient><linearGradient x1="0" y1="0" x2="1" y2="0" gradientUnits="userSpaceOnUse" gradientTransform="matrix(66.4051 0 0 -66.4051 225.142 265.547)" spreadMethod="pad" id="h"><stop style="stop-opacity:1;stop-color:#07c3a6" offset="0"/><stop style="stop-opacity:1;stop-color:#0067fc" offset="1"/></linearGradient><linearGradient x1="0" y1="0" x2="1" y2="0" gradientUnits="userSpaceOnUse" gradientTransform="scale(161.21056 -161.21056) rotate(-49.292 -.805 -2.356)" spreadMethod="pad" id="i"><stop style="stop-opacity:1;stop-color:#ea4136" offset="0"/><stop style="stop-opacity:1;stop-color:#ff8c53" offset="1"/></linearGradient><linearGradient x1="0" y1="0" x2="1" y2="0" gradientUnits="userSpaceOnUse" gradientTransform="matrix(127.73269 0 0 -127.73269 225.142 294.9)" spreadMethod="pad" id="l"><stop style="stop-opacity:1;stop-color:#ea4136" offset="0"/><stop style="stop-opacity:1;stop-color:#ff8c53" offset="1"/></linearGradient><linearGradient x1="0" y1="0" x2="1" y2="0" gradientUnits="userSpaceOnUse" gradientTransform="matrix(68.02684 0 0 -68.02684 151.098 361.149)" spreadMethod="pad" id="n"><stop style="stop-opacity:1;stop-color:#ea4136" offset="0"/><stop style="stop-opacity:1;stop-color:#ff8c53" offset="1"/></linearGradient><clipPath clipPathUnits="userSpaceOnUse" id="b"><path d="M0 500h500V0H0Z"/></clipPath><clipPath clipPathUnits="userSpaceOnUse" id="c"><path d="M110.763 375.545h40.431v-79.583h-40.431z"/></clipPath><clipPath clipPathUnits="userSpaceOnUse" id="f"><path d="M0 500h500V0H0Z"/></clipPath><clipPath clipPathUnits="userSpaceOnUse" id="g"><path d="M225.142 317.709h66.405V213.385h-66.405z"/></clipPath><clipPath clipPathUnits="userSpaceOnUse" id="j"><path d="M0 500h500V0H0Z"/></clipPath><clipPath clipPathUnits="userSpaceOnUse" id="k"><path d="M225.142 376.414h127.733V213.385H225.142Z"/></clipPath><clipPath clipPathUnits="userSpaceOnUse" id="m"><path d="M151.098 397.169h68.027v-72.041h-68.027z"/></clipPath></defs><path d="M166.545 398.58c-.481 0-.962 0-1.443-.031a22.27 22.27 0 0 1-1.769-.093c-8.15-.543-15.942-3.182-22.911-7.342a19.357 19.357 0 0 1-.947-.574c-6.303-3.912-11.875-9.05-16.392-14.995-5.728-7.512-9.717-16.315-11.269-25.519-3.167-18.658 1.024-37.579 9.825-54.064a102.798 102.798 0 0 1 12.403-18.223c25.907-30.516 61.127-51.331 87.592-60.879a48.998 48.998 0 0 1 3.508-1.132 58.493 58.493 0 0 1 42.205 3.663c6.519 3.198 14.266 7.559 22.911 13.458 25.627 17.479 59.232 48.491 92.777 102.944 0 0 8.552 15.925-1.801 29.322-10.339 13.395-24.945 11.702-37.627 10.663-10.973-.885-62.135-11.952-76.927-63.859-2.313-8.071-3.741-17.152-3.99-27.319a.461.461 0 0 1-.078.109c-1.443 3.974-4.361 8.925-8.738 13.659-10.757 11.689-30.3 22.119-58.255 13.644-47.002-14.249-71.092 22.663-55.011 42.857h.015c1.832 2.313 4.207 4.424 7.141 6.194l3.43 6.116 17.571 31.355c-.636.031-1.273.046-1.909.046z" style="fill:url(#a);stroke:none" transform="matrix(1.33636 0 0 -1.33636 -129.286 612.426)"/><g clip-path="url(#b)" transform="matrix(1.33636 0 0 -1.33636 -129.286 612.426)"><g clip-path="url(#c)" opacity=".5"><path d="m151.194 367.179-3.43-6.116c-2.934-1.77-5.309-3.881-7.141-6.194h-.015s-36.384-6.922-18.968-58.907c-8.802 16.485-12.993 35.406-9.826 54.065 1.552 9.204 5.541 18.006 11.269 25.518l11.688-.916 10.478-2.328z" style="fill:url(#d);stroke:none"/></g></g><path d="M166.545 398.58c-.481 0-.962-.015-1.443-.031-.59-.015-1.18-.062-1.769-.093a53.533 53.533 0 0 1-3.524-.389 49.336 49.336 0 0 1-8.165-1.909c-3.912-1.272-7.668-2.996-11.222-5.044a19.357 19.357 0 0 1-.947-.574c-14.265-8.864-24.898-24.06-27.661-40.514-3.167-18.658 1.024-37.579 9.825-54.064-9.747 20.847-12.23 61.081 18.798 65.504a18.7 18.7 0 0 0 7.327-.403c3.243-.823 6.271-2.468 8.831-4.782 5.03-4.501 6.706-10.74 10.152-16.25 3.182-5.108 7.684-9.516 12.977-12.264.015 0 .046-.015.078-.046 3.927-2.017 8.288-3.12 12.867-2.902 10.851.496 20.987 8.118 24.883 18.176 5.712 14.761-2.391 30.159-13.116 40.234-7.063 6.628-15.756 11.455-25.053 13.783a51.46 51.46 0 0 1-12.527 1.568z" style="fill:url(#e);stroke:none" transform="matrix(1.33636 0 0 -1.33636 -129.286 612.426)"/><g clip-path="url(#f)" transform="matrix(1.33636 0 0 -1.33636 -129.286 612.426)"><g clip-path="url(#g)" opacity=".5"><path d="M290.258 232.849c-8.646-5.898-16.392-10.26-22.911-13.458a58.493 58.493 0 0 0-42.205-3.663c43.26-2.127 28.732 82.64 28.732 82.64 4.377-4.734 7.295-9.685 8.738-13.66a.413.413 0 0 0 .078-.108c.248 10.167 1.677 19.248 3.99 27.319l5.464 5.79s16.297-23.283 18.627-30.005c1.583-4.594.403-33.574-.513-54.855" style="fill:url(#h);stroke:none"/></g></g><path d="M352.875 376.414c-3.136-.108-6.256-.388-9.268-.636-12.681-1.025-79.039-15.647-80.917-91.178a.461.461 0 0 1-.078.109c-1.04-27.723 1.087-75.082-37.47-68.981a58.493 58.493 0 0 1 42.205 3.663c19.992 9.81 51.487 30.532 85.497 73.203l.015.016c9.918 12.433 20.055 26.729 30.176 43.183 0 0 8.552 15.925-1.801 29.322-7.215 9.344-16.509 11.347-25.778 11.347-.861 0-1.723-.018-2.581-.048" style="fill:url(#i);stroke:none" transform="matrix(1.33636 0 0 -1.33636 -129.286 612.426)"/><g clip-path="url(#j)" transform="matrix(1.33636 0 0 -1.33636 -129.286 612.426)"><g clip-path="url(#k)" opacity=".3"><path d="M332.105 276.745c7.513 4.425 14.343 9.966 20.739 15.849-34.01-42.671-65.504-63.393-85.497-73.203a58.493 58.493 0 0 0-42.205-3.663c38.557-6.101 36.43 41.258 37.47 68.98a.413.413 0 0 0 .078-.108c1.878 75.531 68.236 90.153 80.917 91.178 3.012.249 6.132.528 9.268.636-2.903-.527-5.604-1.211-6.861-1.443-12.169-2.251-24.013-6.877-34.025-14.219-18.567-13.588-30.82-37.972-30.646-61.026.07-9.316 2.86-18.357 10.355-24.405 12.143-9.8 28.106-5.822 40.407 1.424" style="fill:url(#l);stroke:none"/></g><g><g clip-path="url(#m)" opacity=".3"><path d="M217.331 343.084c-1.019-2.653-2.494-5.232-4.486-7.684-6.344-7.806-17.166-11.941-27.057-9.637-11.402 2.655-16.799 14.188-20.547 24.163-1.881 5.006-3.134 10.612-5.653 15.342-3.106 5.833-9.055 10.538-8.447 17.798 1.034 12.346 17.869 15.366 27.567 13.67 12.163-2.127 22.928-9.588 30.651-19.029 8.097-9.897 12.444-22.969 7.972-34.623" style="fill:url(#n);stroke:none"/></g></g></g></svg>