<?xml version="1.0" encoding="utf-8"?>
<!-- Generator: Adobe Illustrator 25.2.3, SVG Export Plug-In . SVG Version: 6.00 Build 0)  -->
<svg version="1.1" id="Capa_1" xmlns="http://www.w3.org/2000/svg" xmlns:xlink="http://www.w3.org/1999/xlink" x="0px" y="0px"
	 viewBox="0 0 400 400" style="enable-background:new 0 0 400 400;" xml:space="preserve">
<style type="text/css">
	.st0{fill:url(#SVGID_1_);}
	.st1{clip-path:url(#SVGID_3_);}
	.st2{opacity:0.5;clip-path:url(#SVGID_5_);}
	.st3{fill:url(#SVGID_6_);}
	.st4{fill:url(#SVGID_7_);}
	.st5{clip-path:url(#SVGID_9_);}
	.st6{opacity:0.5;clip-path:url(#SVGID_11_);}
	.st7{fill:url(#SVGID_12_);}
	.st8{fill:url(#SVGID_13_);}
	.st9{clip-path:url(#SVGID_15_);}
	.st10{opacity:0.3;clip-path:url(#SVGID_17_);}
	.st11{fill:url(#SVGID_18_);}
	.st12{opacity:0.3;clip-path:url(#SVGID_20_);}
	.st13{fill:url(#SVGID_21_);}
</style>
<linearGradient id="SVGID_1_" gradientUnits="userSpaceOnUse" x1="-4023.8987" y1="4451.145" x2="-4022.7498" y2="4451.145" gradientTransform="matrix(51.8812 203.6658 203.6658 -51.8812 -697621.5 1050504)">
	<stop  offset="0" style="stop-color:#07C3A6"/>
	<stop  offset="1" style="stop-color:#0067FC"/>
</linearGradient>
<path class="st0" d="M145.9,32.7c-0.6-0.4-1.3-0.8-1.9-1.1c-0.8-0.5-1.6-0.9-2.4-1.3c-11.1-5.9-23.4-8.7-35.8-8.9
	c-0.6,0-1.1,0-1.7,0c-11.4,0-22.8,2.2-33.5,6.3C57,32.8,44.7,41.1,35.2,51.8C16,73.6,6.2,101.7,4.3,130.3
	c-0.7,11.3-0.2,22.6,1.5,33.8c9.2,60.8,38.3,116.4,65.1,150.3c1.2,1.5,2.4,2.9,3.7,4.3c15,16.7,35.7,27.1,58.1,29.3
	c11.1,1.1,24.7,1.7,40.8,0.9c47.6-2.1,116.5-15.4,204.3-59.4c0,0,24-13.9,21.3-39.7c-2.7-25.8-23.1-35.4-40.5-44.3
	c-15-7.7-90.8-34.6-152,21.2c-9.5,8.7-18.7,19.4-27.3,32.4c0-0.1,0-0.1,0-0.2c1.3-6.4,1.5-15.2-0.4-24.9c-4.6-24-21.7-53.4-65-64.9
	C41,149.8,39.4,82.1,76.7,68.8l0,0c4.3-1.5,9.1-2.4,14.3-2.3l9.4-5.2l48.3-26.7c-0.8-0.6-1.6-1.1-2.5-1.6L145.9,32.7z"/>
<g>
	<defs>
		
			<rect id="SVGID_2_" x="-249.1" y="-89.8" transform="matrix(0.5264 -0.8502 0.8502 0.5264 -186.2127 253.8412)" width="767.6" height="767.6"/>
	</defs>
	<clipPath id="SVGID_3_">
		<use xlink:href="#SVGID_2_"  style="overflow:visible;"/>
	</clipPath>
	<g transform="matrix(1.33636 0 0 -1.33636 -129.286 612.426)" class="st1">
		<g>
			<defs>
				
					<rect id="SVGID_4_" x="72.1" y="362.9" transform="matrix(0.5264 -0.8502 0.8502 0.5264 -271.8984 299.8188)" width="122.2" height="62.1"/>
			</defs>
			<clipPath id="SVGID_5_">
				<use xlink:href="#SVGID_4_"  style="overflow:visible;"/>
			</clipPath>
			<g class="st2">
				
					<linearGradient id="SVGID_6_" gradientUnits="userSpaceOnUse" x1="-2879.6133" y1="-2816.533" x2="-2878.4644" y2="-2816.533" gradientTransform="matrix(45.9393 -28.441 -28.441 -45.9393 52295.918 -210882.5312)">
					<stop  offset="0" style="stop-color:#07C3A6"/>
					<stop  offset="1" style="stop-color:#0067FC"/>
				</linearGradient>
				<path class="st3" d="M171.9,412.4l-7-3.9c-3.9,0-7.5-0.6-10.7-1.7l0,0c0,0-39.7,15.2-54.2-46.1c1.4,21.4,8.7,42.4,23.1,58.8
					c7.1,8.1,16.3,14.2,26.4,18.1l10.9-8l8.8-8.6L171.9,412.4z"/>
			</g>
		</g>
	</g>
</g>
<linearGradient id="SVGID_7_" gradientUnits="userSpaceOnUse" x1="-4023.6497" y1="4423.8232" x2="-4022.501" y2="4423.8232" gradientTransform="matrix(123.4794 76.446 76.446 -123.4794 158685.8906 853897.3125)">
	<stop  offset="0" style="stop-color:#EA4136"/>
	<stop  offset="1" style="stop-color:#FF8C53"/>
</linearGradient>
<path class="st4" d="M145.9,32.7c-0.6-0.4-1.3-0.8-1.9-1.1c-0.8-0.5-1.6-0.9-2.4-1.3c-1.6-0.8-3.3-1.6-4.9-2.3
	c-3.9-1.7-8-3.1-12.2-4.1c-6.1-1.5-12.4-2.3-18.7-2.5c-0.6,0-1.1,0-1.7,0c-25.8,0-51.9,11.3-68.8,30.5C16,73.6,6.2,101.7,4.3,130.3
	C8.5,95.2,37.7,40.7,81.8,60c3.5,1.5,6.6,3.7,9.2,6.4c3.6,3.7,6.2,8.3,7.7,13.4c2.9,9.9,0.1,19.4,0.1,29.4c0,9.2,2.3,18.6,7,26.5
	c0,0,0,0.1,0.1,0.1c3.5,5.8,8.3,10.8,14.5,14.2c14.6,8.1,34,6.4,47.2-3.6c19.4-14.7,21.3-41.3,15.4-63.1
	c-3.9-14.4-11.3-27.7-21.6-38.2c-4.5-4.7-9.6-8.7-15.1-12.2L145.9,32.7z"/>
<g>
	<defs>
		
			<rect id="SVGID_8_" x="-249.1" y="-89.8" transform="matrix(0.5264 -0.8502 0.8502 0.5264 -186.2127 253.8412)" width="767.6" height="767.6"/>
	</defs>
	<clipPath id="SVGID_9_">
		<use xlink:href="#SVGID_8_"  style="overflow:visible;"/>
	</clipPath>
	<g transform="matrix(1.33636 0 0 -1.33636 -129.286 612.426)" class="st5">
		<g>
			<defs>
				
					<rect id="SVGID_10_" x="135" y="197.4" transform="matrix(0.5264 -0.8502 0.8502 0.5264 -109.2863 300.542)" width="160.2" height="102"/>
			</defs>
			<clipPath id="SVGID_11_">
				<use xlink:href="#SVGID_10_"  style="overflow:visible;"/>
			</clipPath>
			<g class="st6">
				
					<linearGradient id="SVGID_12_" gradientUnits="userSpaceOnUse" x1="-2900.9385" y1="-2838.5454" x2="-2899.7896" y2="-2838.5454" gradientTransform="matrix(75.4517 -46.7121 -46.7121 -75.4517 86469.1094 -349413.6875)">
					<stop  offset="0" style="stop-color:#07C3A6"/>
					<stop  offset="1" style="stop-color:#0067FC"/>
				</linearGradient>
				<path class="st7" d="M226.5,197.1c-12-0.5-22.2-0.1-30.5,0.7c-16.7,1.6-32.2,9.5-43.4,21.9c41-28.2,78,63.3,78,63.3
					c1.4-7.3,1.3-13.9,0.3-18.6c0,0,0-0.1,0-0.2c6.4,9.8,13.3,17.8,20.4,24.3l8.8,2.4c0,0,1.8-32.6,0-40.6
					C259,245,240.3,217.4,226.5,197.1"/>
			</g>
		</g>
	</g>
</g>
<linearGradient id="SVGID_13_" gradientUnits="userSpaceOnUse" x1="-4053.3438" y1="4425.437" x2="-4052.1948" y2="4425.437" gradientTransform="matrix(205.4299 -64.8916 -64.8916 -205.4299 1119961.5 646403.125)">
	<stop  offset="0" style="stop-color:#EA4136"/>
	<stop  offset="1" style="stop-color:#FF8C53"/>
</linearGradient>
<path class="st8" d="M371.2,212.2c-4.2-2.4-8.5-4.5-12.6-6.7c-17.4-8.9-115.8-43.5-179.3,53.6c0-0.1,0-0.1,0-0.2
	c-23.8,35.3-59.3,98.9-104.7,59.8c15,16.7,35.7,27.1,58.1,29.3c34,3.4,91.9,1.8,170.8-26.5l0,0c23-8.2,47.8-18.7,74.3-32
	c0,0,24-13.9,21.3-39.7c-1.9-18-12.4-28.2-24.5-35.6C373.5,213.5,372.3,212.8,371.2,212.2"/>
<g>
	<defs>
		
			<rect id="SVGID_14_" x="-249.1" y="-89.8" transform="matrix(0.5264 -0.8502 0.8502 0.5264 -186.2127 253.8412)" width="767.6" height="767.6"/>
	</defs>
	<clipPath id="SVGID_15_">
		<use xlink:href="#SVGID_14_"  style="overflow:visible;"/>
	</clipPath>
	<g transform="matrix(1.33636 0 0 -1.33636 -129.286 612.426)" class="st9">
		<g>
			<defs>
				
					<rect id="SVGID_16_" x="137.7" y="160.4" transform="matrix(0.5264 -0.8502 0.8502 0.5264 -95.3045 345.8983)" width="250.3" height="196.1"/>
			</defs>
			<clipPath id="SVGID_17_">
				<use xlink:href="#SVGID_16_"  style="overflow:visible;"/>
			</clipPath>
			<g class="st10">
				
					<linearGradient id="SVGID_18_" gradientUnits="userSpaceOnUse" x1="-2917.1116" y1="-2855.167" x2="-2915.9629" y2="-2855.167" gradientTransform="matrix(145.1342 -89.8525 -89.8525 -145.1342 167029.3906 -676195.0625)">
					<stop  offset="0" style="stop-color:#EA4136"/>
					<stop  offset="1" style="stop-color:#FF8C53"/>
				</linearGradient>
				<path class="st11" d="M293.9,214.7c10-0.2,20,1.1,29.8,2.9c-59-21.1-102.3-22.3-127.8-19.8c-16.7,1.6-32.2,9.5-43.4,21.9
					c34-29.3,60.5,18.3,78.3,44.7c0,0,0-0.1,0-0.2c47.5,72.6,121.2,46.8,134.2,40.1c3.1-1.6,6.3-3.2,9.4-5c-3.2,1.2-6.2,2.2-7.6,2.7
					c-13.2,5.2-27.6,7.8-41.8,6.7c-26.4-2-53.1-18.5-66.8-41.1c-5.6-9.1-8.3-19.7-4.6-30.1C259.6,220.8,277.6,215.1,293.9,214.7"/>
			</g>
		</g>
		<g>
			<g>
				<defs>
					
						<rect id="SVGID_19_" x="146.1" y="333.8" transform="matrix(0.5264 -0.8502 0.8502 0.5264 -232.8387 354.0792)" width="110.6" height="104.4"/>
				</defs>
				<clipPath id="SVGID_20_">
					<use xlink:href="#SVGID_19_"  style="overflow:visible;"/>
				</clipPath>
				<g class="st12">
					
						<linearGradient id="SVGID_21_" gradientUnits="userSpaceOnUse" x1="-2901.8628" y1="-2839.5261" x2="-2900.7139" y2="-2839.5261" gradientTransform="matrix(77.2944 -47.8529 -47.8529 -77.2944 88586.3984 -357935.4688)">
						<stop  offset="0" style="stop-color:#EA4136"/>
						<stop  offset="1" style="stop-color:#FF8C53"/>
					</linearGradient>
					<path class="st13" d="M222,348.9c-2.6-2-5.6-3.6-9-4.8c-10.9-3.8-24-1.3-32.3,6.9c-9.5,9.5-7.8,24-5.5,36
						c1.2,6,3.4,12.3,3.8,18.4c0.5,7.6-2.5,15.8,2.5,22.5c8.5,11.4,26.7,4.2,35.2-3.3c10.6-9.4,16.6-23.2,18.4-37.1
						C237,373,233.4,357.6,222,348.9"/>
				</g>
			</g>
		</g>
	</g>
</g>
</svg>
