<?xml version="1.0" encoding="utf-8"?>
<!-- Generator: Adobe Illustrator 25.2.3, SVG Export Plug-In . SVG Version: 6.00 Build 0)  -->
<svg version="1.1" id="Outline" xmlns="http://www.w3.org/2000/svg" xmlns:xlink="http://www.w3.org/1999/xlink" x="0px" y="0px"
	 viewBox="0 0 512 512" style="enable-background:new 0 0 512 512;" xml:space="preserve">
<style type="text/css">
	.st0{fill:#39b4a0ff;}
	.st1{fill:#203555;}
</style>
<path class="st0" d="M490.8,37.1c-28.3-28.3-74.2-28.3-102.5,0L62.8,362.5c-18.8,18.7-29.4,44.2-29.3,70.7v41.1c0,11.1,9,20,20,20
	h41.1c26.5,0.1,52-10.5,70.7-29.3l325.4-325.4C519.1,111.3,519.1,65.4,490.8,37.1z"/>
<path class="st1" d="M457.3,23.1c-28.3-28.3-74.2-28.3-102.5,0L29.3,348.5C10.5,367.2-0.1,392.7,0,419.2v41.1c0,11.1,9,20,20,20
	h41.1c26.5,0.1,52-10.5,70.7-29.3l325.4-325.4C485.5,97.3,485.5,51.4,457.3,23.1z M103.5,422.7C92.2,434,77,440.3,61.1,440.3H40
	v-21.1c0-15.9,6.3-31.2,17.6-42.4l247-247l46,46L103.5,422.7z M429,97.3l-50.1,50.2l-46-45.9L383,51.4c12.7-12.7,33.3-12.7,46,0.1
	c12.7,12.7,12.7,33.3-0.1,46l0,0L429,97.3z"/>
</svg>
