<?xml version="1.0" encoding="utf-8"?>
<!-- Generator: Adobe Illustrator 25.2.3, SVG Export Plug-In . SVG Version: 6.00 Build 0)  -->
<svg version="1.1" id="Capa_1" xmlns="http://www.w3.org/2000/svg" xmlns:xlink="http://www.w3.org/1999/xlink" x="0px" y="0px"
	 viewBox="0 0 512 512" style="enable-background:new 0 0 512 512;" xml:space="preserve">
<style type="text/css">
	.st0{fill:#39b4a0ff;}
	.st1{fill:#203555;}
</style>
<path class="st0" d="M502.4,434.6L412.9,345c67-89.5,48.7-216.4-40.8-283.4S155.7,12.9,88.8,102.5S40,318.8,129.6,385.8
	c71.9,53.8,170.7,53.8,242.6,0l89.6,89.6c11.3,11.3,29.5,11.3,40.8,0C513.7,464.1,513.7,445.9,502.4,434.6L502.4,434.6z"/>
<g>
	<path class="st1" d="M455.2,419.8l-89.5-89.6c67-89.5,48.7-216.4-40.8-283.4S108.5-1.8,41.5,87.7S-7.2,304.1,82.3,371.1
		c71.9,53.8,170.7,53.8,242.6,0l89.6,89.6c11.3,11.3,29.5,11.3,40.8,0C466.4,449.4,466.4,431.1,455.2,419.8L455.2,419.8z
		 M204.3,353.8c-79.6,0-144-64.5-144-144s64.5-144,144-144s144,64.5,144,144C348.3,289.2,283.8,353.7,204.3,353.8z"/>
</g>
</svg>
