<?xml version="1.0" encoding="utf-8"?>
<!-- Generator: Adobe Illustrator 25.2.3, SVG Export Plug-In . SVG Version: 6.00 Build 0)  -->
<svg version="1.1" id="Layer_1" xmlns="http://www.w3.org/2000/svg" xmlns:xlink="http://www.w3.org/1999/xlink" x="0px" y="0px"
	 viewBox="0 0 512 512" style="enable-background:new 0 0 512 512;" xml:space="preserve">
<style type="text/css">
	.st0{fill:#39b4a0ff;}
	.st1{fill:#203555;}
</style>
<path class="st0" d="M497,215.8C497,215.8,497,215.8,497,215.8L497,215.8L395.4,114.3l-29,29.1l88.2,88.2H285.8V63.4
	c0-31.8-25.7-57.5-57.5-57.5h-141c-31.8,0-57.5,25.7-57.5,57.5v377.5c0,31.8,25.7,57.5,57.5,57.5h141c31.8,0,57.5-25.7,57.5-57.5
	V272.7h168.8l-88.2,88.2l29,29L497,288.4C517,268.3,517,235.8,497,215.8z"/>
<path class="st1" d="M467.1,223.6L365.5,122l-29,29.1l88.2,88.2h-289v41h289l-88.2,88.2l29,29L467.1,296
	C487.2,276,487.2,243.5,467.1,223.6C467.2,223.5,467.2,223.5,467.1,223.6L467.1,223.6z"/>
<path class="st1" d="M215,444.5c0,11.3-9.2,20.5-20.5,20.5H61.6c-11.3,0-20.5-9.2-20.5-20.5V75.2c0-11.3,9.2-20.5,20.5-20.5h132.9
	c11.3,0,20.5,9.2,20.5,20.5v109.4h41V75.2c0-34-27.6-61.6-61.6-61.6H61.6C27.6,13.6,0,41.2,0,75.2v369.4c0,34,27.6,61.6,61.6,61.6
	h132.9c34,0,61.6-27.6,61.6-61.6V335.1h-41V444.5z"/>
</svg>
