<?xml version="1.0" encoding="utf-8"?>
<!-- Generator: Adobe Illustrator 25.2.3, SVG Export Plug-In . SVG Version: 6.00 Build 0)  -->
<svg version="1.1" id="Outline" xmlns="http://www.w3.org/2000/svg" xmlns:xlink="http://www.w3.org/1999/xlink" x="0px" y="0px"
	 viewBox="0 0 512 512" style="enable-background:new 0 0 512 512;" xml:space="preserve">
<style type="text/css">
	.st0{fill:#e84037ff;}
	.st1{fill:#203555;}
</style>
<path class="st0" d="M480.4,84.5H415C404.9,35.3,361.7,0.1,311.5,0h-42.2c-50.1,0.1-93.4,35.3-103.5,84.5h-65.5
	c-11.7,0-21.1,9.5-21.1,21.1s9.5,21.1,21.1,21.1h21.1v274.5c0.1,58.3,47.3,105.5,105.6,105.6h126.7c58.3-0.1,105.5-47.3,105.6-105.6
	V126.7h21.1c11.7,0,21.1-9.5,21.1-21.1S492.1,84.5,480.4,84.5z"/>
<path class="st1" d="M442.5,91.4H377C366.9,42.3,323.7,7,273.6,6.9h-42.2C181.2,7,138,42.3,127.9,91.4H62.4
	c-11.7,0-21.1,9.5-21.1,21.1s9.5,21.1,21.1,21.1h21.1v274.5c0.1,58.3,47.3,105.5,105.6,105.6h126.7c58.3-0.1,105.5-47.3,105.6-105.6
	V133.6h21.1c11.7,0,21.1-9.5,21.1-21.1S454.1,91.4,442.5,91.4z M231.4,49.2h42.2c26.8,0,50.7,16.9,59.7,42.2H171.6
	C180.6,66.1,204.5,49.2,231.4,49.2z M379.1,408.1c0,35-28.4,63.3-63.3,63.3H189.1c-35,0-63.3-28.4-63.3-63.3V133.6h253.4V408.1z"/>
<path class="st1" d="M210.2,387c11.7,0,21.1-9.5,21.1-21.1V239.2c0-11.7-9.5-21.1-21.1-21.1c-11.7,0-21.1,9.5-21.1,21.1v126.7
	C189.1,377.5,198.6,387,210.2,387z"/>
<path class="st1" d="M294.7,387c11.7,0,21.1-9.5,21.1-21.1V239.2c0-11.7-9.5-21.1-21.1-21.1c-11.7,0-21.1,9.5-21.1,21.1v126.7
	C273.6,377.5,283,387,294.7,387z"/>
</svg>
