<svg width="230" height="230" xml:space="preserve" style="clip-rule:evenodd;fill-rule:evenodd;stroke-linejoin:round;stroke-miterlimit:2" xmlns="http://www.w3.org/2000/svg"><path d="M-197.297 128.086c.003-.16.005-.321.005-.481 0-11.175-9.195-20.37-20.37-20.37-.165 0-.329.002-.494.006-12.271-.764-23.042 8.587-24.008 20.845zm28.78 48.483a59.877 59.877 0 0 1-46.46 21.77c-33.975 0-61.176-22.68-61.176-57.796 0-35.117 27.198-57.785 61.175-57.785 31.756 0 51.67 22.65 51.67 57.785v10.652h-78.856c2.02 12.435 13.01 21.577 25.604 21.302a29.023 29.023 0 0 0 24.246-13.37zm76.024-64.017c-16.987 0-27.18 11.343-27.18 27.87 0 16.528 10.19 27.88 27.18 27.88 16.99 0 27.205-11.324 27.205-27.88 0-16.555-10.197-27.87-27.205-27.87m58.482 82.945h-31.277v-14.51h-.464a42.75 42.75 0 0 1-33.777 17.227c-32.643 0-54.146-23.56-54.146-56.876 0-30.597 19.03-58.694 50.31-58.694 14.06 0 27.194 3.847 34.898 14.51h.446V34.086h34.006zm229.358.063h-33.974v-53.205c0-12.688-.227-29.02-17.67-29.02-17.695 0-20.403 13.823-20.403 28.096v54.125H89.327V86.145h32.614v14.952h.458a35.786 35.786 0 0 1 32.18-17.673c34.433 0 40.783 22.649 40.783 52.115zM50.992 71.19h-.004c-10.816 0-19.716-8.9-19.716-19.715 0-10.816 8.9-19.716 19.716-19.716 10.815 0 19.714 8.898 19.716 19.712v.004c0 10.813-8.898 19.713-19.712 19.715M67.98 195.56H33.97V86.145h34.01ZM212.284.208H16.897C7.725.104.089 7.562-.023 16.734v196.198c.108 9.177 7.743 16.644 16.92 16.545h195.387c9.2.116 16.86-7.35 16.984-16.545V16.721C229.145 7.529 221.473.072 212.284.193m43.085 199.639c-8.523.082-15.487 7.113-15.487 15.634 0 8.578 7.056 15.636 15.63 15.636 8.584 0 15.64-7.058 15.64-15.636 0-8.52-6.963-15.552-15.486-15.634h-.297m0 29.48-.236.001c-7.518 0-13.702-6.188-13.702-13.71 0-7.52 6.184-13.71 13.702-13.71 7.435 0 13.589 6.048 13.712 13.481v.231c.154 7.357-5.764 13.54-13.117 13.699h-.36" style="fill:#0a66c2;fill-rule:nonzero;stroke-width:1.02559"/></svg>